<svg version="1.0" xmlns="http://www.w3.org/2000/svg"
 width="500.000000pt" height="500.000000pt" viewBox="0 0 500.000000 500.000000"
 preserveAspectRatio="xMidYMid meet">

<g transform="translate(0.000000,500.000000) scale(0.100000,-0.100000)"
fill="#ffffff" stroke="none">
<path d="M2096 4454 c-331 -55 -590 -161 -855 -349 -336 -238 -596 -594 -745
-1023 -86 -248 -128 -568 -106 -812 34 -385 137 -696 327 -987 30 -46 57 -83
60 -83 3 0 -1 10 -9 23 -166 260 -270 542 -312 845 -18 130 -21 397 -6 522 46
369 179 701 399 998 85 114 301 329 421 418 314 235 635 372 1025 440 l130 22
-125 0 c-69 0 -160 -6 -204 -14z"/>
<path d="M2445 4234 c-88 -6 -228 -25 -295 -40 -191 -43 -437 -146 -605 -255
-196 -128 -406 -338 -530 -531 -34 -54 -7 -27 51 49 231 308 568 538 947 647
236 68 539 86 782 46 254 -41 506 -141 730 -290 283 -187 495 -421 664 -730
50 -93 52 -80 5 36 -190 474 -615 852 -1119 999 -171 49 -461 81 -630 69z"/>
<path d="M2437 4003 c-16 -16 -4 -23 36 -21 l42 3 3 -122 c2 -116 4 -123 23
-123 19 0 20 6 19 123 l-2 122 41 -2 c30 -1 41 2 41 13 0 11 -19 14 -98 14
-54 0 -102 -3 -105 -7z"/>
<path d="M2285 3968 c29 -134 35 -160 35 -164 0 -3 -34 23 -76 58 -110 92
-124 102 -134 92 -7 -8 35 -252 46 -263 14 -14 12 18 -6 104 -11 54 -19 100
-17 101 2 2 50 -35 106 -82 56 -47 105 -84 108 -81 10 11 -45 257 -58 257 -5
0 -7 -10 -4 -22z"/>
<path d="M2777 3871 c-42 -66 -77 -122 -77 -125 0 -17 21 -2 35 25 16 30 18
31 68 24 63 -9 73 -16 81 -60 5 -26 12 -35 26 -35 11 0 20 3 20 7 0 17 -63
269 -69 275 -3 4 -41 -46 -84 -111z m74 7 c5 -24 12 -51 15 -61 5 -17 1 -18
-43 -11 -26 3 -50 8 -52 10 -2 2 11 28 30 58 18 31 35 54 37 52 2 -3 8 -24 13
-48z"/>
<path d="M3057 3798 c-44 -117 -47 -137 -16 -138 3 0 26 51 49 113 24 61 44
113 45 115 5 6 60 -20 67 -31 14 -21 8 -54 -12 -72 -15 -13 -28 -16 -57 -11
-23 4 -33 3 -25 -2 7 -5 21 -41 31 -79 21 -82 27 -93 47 -93 18 0 18 6 -6 75
-23 67 -25 87 -7 83 30 -6 67 13 73 38 10 39 -11 73 -59 94 -87 37 -78 44
-130 -92z"/>
<path d="M1843 3860 c-73 -33 -101 -108 -69 -183 19 -45 57 -77 99 -84 78 -12
168 81 152 159 -11 51 -45 99 -81 114 -43 18 -50 17 -101 -6z m86 -26 c30 -21
60 -89 61 -135 0 -38 -25 -73 -60 -84 -85 -27 -168 134 -109 209 24 31 72 35
108 10z"/>
<path d="M3378 3657 c-64 -44 -115 -84 -112 -89 3 -5 18 1 34 12 36 26 40 25
94 -7 44 -27 45 -29 43 -72 -1 -35 2 -46 14 -49 13 -2 19 19 33 125 10 70 20
136 22 146 3 9 2 17 -3 16 -4 0 -61 -37 -125 -82z m77 -24 c-4 -32 -9 -61 -11
-65 -5 -8 -84 40 -84 51 1 6 91 71 99 71 2 0 0 -26 -4 -57z"/>
<path d="M1560 3705 c-10 -12 -8 -34 13 -115 13 -55 21 -100 16 -100 -4 0 -48
22 -97 48 -72 40 -92 47 -105 37 -14 -10 -8 -23 49 -106 36 -52 69 -101 74
-109 5 -8 12 -12 15 -8 4 4 -18 43 -49 88 -31 45 -56 84 -56 87 0 2 47 -21
105 -52 l106 -56 -7 28 c-3 15 -16 70 -29 121 -13 50 -20 92 -16 92 3 -1 35
-37 71 -81 58 -72 95 -96 95 -62 0 12 -156 201 -166 202 -4 1 -12 -6 -19 -14z"/>
<path d="M3694 3579 c-4 -6 0 -16 9 -21 25 -13 77 -59 77 -67 0 -3 -61 -22
-135 -41 -74 -19 -135 -37 -135 -41 0 -15 142 -131 150 -123 6 6 -12 27 -46
53 -30 24 -54 44 -52 46 2 2 63 19 137 39 73 19 135 37 138 39 2 2 -28 32 -66
66 -46 41 -72 58 -77 50z"/>
<path d="M4232 3538 c246 -380 366 -880 317 -1326 -61 -565 -325 -1051 -761
-1403 -356 -287 -718 -437 -1191 -496 -125 -15 -137 -18 -97 -25 69 -10 364 9
477 32 204 41 339 88 531 187 510 261 889 751 1038 1341 140 553 44 1151 -258
1620 -33 50 -62 92 -65 92 -3 0 1 -10 9 -22z"/>
<path d="M2723 3117 c-26 -28 -94 -107 -150 -174 -57 -66 -133 -150 -169 -185
-37 -34 -97 -93 -132 -130 -46 -48 -72 -68 -89 -68 -41 0 -196 87 -261 145
-33 30 -79 85 -102 121 -33 52 -46 65 -63 62 -14 -2 -50 -41 -104 -113 -45
-60 -106 -132 -135 -159 -66 -62 -223 -178 -438 -326 -179 -123 -300 -216
-300 -232 0 -10 49 15 370 190 l195 107 122 123 c129 130 144 138 190 102 38
-30 50 -25 75 28 13 26 27 47 32 47 6 0 14 -15 18 -32 5 -18 12 -33 17 -33 5
0 17 21 28 46 l19 47 84 -73 c91 -77 148 -109 194 -110 16 0 63 16 106 35 43
19 88 35 100 35 39 0 109 54 225 170 60 60 113 110 117 110 4 0 8 -26 10 -57
l3 -58 33 45 c18 25 40 49 48 53 23 13 46 -13 73 -82 28 -70 57 -104 71 -81 5
8 12 32 15 52 8 44 17 48 33 13 21 -45 104 -126 217 -210 121 -91 149 -118
160 -155 19 -64 45 -58 95 20 18 27 38 50 46 50 7 0 31 -22 52 -49 l39 -48 11
29 c6 17 15 28 21 26 5 -1 66 -50 136 -108 284 -236 494 -360 635 -377 50 -6
54 -5 41 10 -12 15 -10 17 14 17 23 0 27 3 22 23 -3 12 -11 45 -17 72 -6 28
-17 61 -24 75 -39 72 -42 163 -6 175 27 9 43 57 35 107 -4 24 -11 48 -16 54
-5 6 -12 28 -17 50 -7 35 -11 39 -42 42 -30 2 -38 -2 -52 -28 -23 -40 -38 -38
-38 5 0 28 -5 36 -23 40 -12 3 -36 -1 -52 -9 -17 -9 -24 -16 -17 -16 6 0 12
-9 12 -20 0 -11 11 -30 24 -41 14 -12 23 -26 21 -33 -2 -6 -6 -23 -9 -38 -4
-19 -13 -28 -26 -28 -25 0 -90 31 -90 42 0 5 -5 6 -11 3 -6 -4 -7 -14 -3 -24
4 -9 10 -32 14 -51 l8 -35 1 33 c0 19 4 32 9 30 4 -2 24 -12 45 -23 30 -15 42
-17 56 -8 21 13 32 8 24 -13 -3 -8 -16 -14 -30 -14 -18 0 -24 -5 -21 -19 2
-13 -9 -28 -32 -43 -34 -24 -35 -25 -32 -85 2 -37 -1 -64 -8 -68 -13 -8 -151
67 -249 136 -94 66 -174 146 -281 282 -46 59 -94 110 -105 113 -15 5 -31 -6
-71 -51 -51 -57 -52 -57 -86 -46 -60 20 -148 101 -306 281 -118 135 -162 194
-197 262 -25 48 -49 89 -54 92 -5 3 -31 -18 -58 -47z m1563 -978 c9 -22 19
-37 21 -35 3 2 -5 23 -17 46 -16 30 -19 45 -11 53 8 8 11 7 11 -1 0 -7 10 -23
23 -36 63 -66 106 -182 71 -193 -6 -2 -17 10 -24 27 -7 17 -15 29 -17 26 -3
-2 1 -14 7 -26 6 -12 9 -24 7 -27 -4 -4 -139 62 -184 90 -9 6 -9 19 2 55 8 26
15 57 15 69 0 51 66 18 96 -48z"/>
<path d="M4122 2265 c0 -16 2 -22 5 -12 2 9 2 23 0 30 -3 6 -5 -1 -5 -18z"/>
<path d="M2223 2113 c-67 -5 -69 -23 -3 -23 30 0 50 -4 50 -11 0 -8 5 -8 15 1
12 10 15 10 15 -4 0 -9 -8 -16 -20 -16 -27 0 -100 -30 -100 -41 0 -13 21 -10
50 6 14 8 40 14 58 15 25 0 32 4 32 20 0 18 7 20 75 20 41 0 75 4 75 9 0 4
-37 11 -82 14 -46 3 -90 7 -98 9 -8 2 -39 3 -67 1z"/>
<path d="M2745 2109 c-22 -4 -64 -8 -92 -8 -29 -1 -53 -5 -53 -11 0 -6 30 -10
70 -10 63 0 70 -2 70 -20 0 -15 7 -20 29 -20 16 0 45 -7 64 -15 42 -17 61 -19
52 -5 -8 13 -72 40 -96 40 -11 0 -19 7 -19 18 0 13 2 14 9 3 6 -9 11 -10 15
-2 4 6 27 11 52 11 24 0 44 5 44 10 0 6 -18 10 -39 10 -22 0 -45 2 -53 4 -7 2
-31 0 -53 -5z"/>
<path d="M2492 2088 c6 -41 88 -33 88 8 0 10 -14 14 -46 14 -41 0 -45 -2 -42
-22z"/>
<path d="M2507 2044 c-4 -4 -7 -20 -7 -35 0 -19 -8 -34 -25 -45 -19 -12 -25
-25 -25 -50 0 -24 5 -34 15 -34 8 0 15 7 15 15 0 39 93 43 105 4 10 -30 35
-23 35 10 0 19 -8 36 -24 49 -16 12 -26 31 -28 53 -2 28 -8 35 -28 37 -14 2
-29 0 -33 -4z"/>
<path d="M2450 1696 c0 -91 4 -167 9 -170 5 -3 11 0 13 7 7 26 -4 327 -13 327
-5 0 -9 -70 -9 -164z"/>
<path d="M2507 1853 c-4 -3 -7 -139 -7 -300 l0 -294 33 3 32 3 3 284 c2 201
-1 288 -9 297 -12 15 -41 19 -52 7z"/>
<path d="M2590 1696 c0 -99 4 -167 10 -171 7 -4 10 53 10 164 0 107 -4 171
-10 171 -6 0 -10 -61 -10 -164z"/>
<path d="M1122 1839 c-22 -8 -36 -44 -30 -75 1 -9 16 -26 31 -38 26 -19 30
-19 55 -5 68 38 18 145 -56 118z m76 -47 c4 -29 -11 -48 -42 -54 -31 -6 -56 8
-56 32 0 50 91 71 98 22z"/>
<path d="M3750 1754 c-15 -38 -14 -39 40 -53 28 -7 50 -18 50 -24 1 -19 17 15
25 51 4 20 3 32 -4 32 -6 0 -8 -6 -6 -12 7 -20 -10 -39 -28 -32 -20 7 -22 30
-4 37 7 3 5 6 -5 6 -10 1 -18 -6 -18 -14 0 -8 -9 -15 -20 -15 -22 0 -28 35 -7
43 9 4 9 6 -1 6 -7 1 -17 -11 -22 -25z"/>
<path d="M1250 1634 c0 -6 -18 -18 -40 -27 -34 -13 -40 -20 -40 -45 0 -33 22
-62 46 -62 8 0 28 7 45 15 16 9 34 13 39 10 5 -3 7 0 4 8 -4 12 -12 11 -47 -5
-29 -15 -46 -18 -56 -11 -29 18 -18 47 24 68 22 11 42 21 43 22 2 1 -1 10 -7
20 -6 10 -11 13 -11 7z"/>
<path d="M885 1580 c16 -56 88 -191 155 -292 120 -180 285 -345 469 -469 313
-211 661 -309 1051 -296 240 8 425 45 630 127 261 104 458 236 651 437 88 93
229 275 229 298 0 4 -27 -30 -60 -74 -153 -206 -397 -412 -629 -531 -283 -144
-645 -216 -962 -191 -378 30 -762 192 -1074 453 -153 127 -293 289 -410 473
-31 50 -54 79 -50 65z"/>
<path d="M3686 1574 c-21 -20 -21 -20 12 -19 17 0 27 -5 27 -15 0 -14 -6 -14
-46 -3 -9 3 -19 -3 -23 -12 -3 -9 -2 -13 4 -10 12 7 87 -30 92 -46 2 -6 9 1
16 16 7 14 8 24 3 21 -11 -7 -41 3 -41 14 0 4 15 11 34 14 19 4 36 13 39 20 5
11 -1 12 -25 5 -26 -7 -34 -5 -45 11 -17 24 -27 25 -47 4z"/>
<path d="M1354 1424 c9 -8 16 -17 16 -18 0 -11 -83 -56 -91 -50 -6 3 -3 -5 6
-20 15 -23 34 -39 21 -17 -7 11 72 64 84 56 6 -3 10 -13 10 -21 0 -8 4 -13 10
-9 10 6 -48 95 -63 95 -4 0 -1 -7 7 -16z"/>
<path d="M3596 1414 c-3 -8 -1 -14 5 -14 21 0 69 -42 69 -59 0 -10 -7 -24 -15
-31 -13 -11 -23 -8 -60 18 -32 22 -45 27 -49 17 -3 -8 12 -24 36 -40 34 -22
45 -25 64 -16 13 6 26 22 30 37 6 23 0 33 -34 64 -30 28 -42 34 -46 24z"/>
<path d="M1478 1271 c5 -9 -62 -71 -77 -71 -10 0 -3 -12 19 -35 38 -40 77 -46
103 -17 25 28 21 55 -15 94 -18 19 -32 32 -30 29z m38 -56 c8 -34 0 -53 -31
-67 -21 -9 -28 -8 -45 7 -20 19 -20 19 12 52 38 39 55 42 64 8z"/>
<path d="M3430 1207 c-19 -23 -25 -34 -14 -24 21 17 22 17 57 -22 25 -28 38
-36 46 -28 7 7 -1 21 -31 46 l-41 35 23 18 c13 10 16 18 9 17 -8 0 -30 -19
-49 -42z"/>
<path d="M1606 1075 c-22 -22 -20 -68 3 -89 29 -26 82 -18 100 16 14 25 14 29
-5 55 -25 33 -73 42 -98 18z m88 -18 c18 -28 -12 -72 -49 -72 -25 0 -30 4 -33
28 -6 55 55 88 82 44z"/>
<path d="M3270 1069 c-14 -11 -20 -18 -13 -15 15 8 77 -70 67 -86 -4 -6 9 1
29 16 20 16 37 35 37 43 0 11 -6 8 -19 -8 l-20 -24 -30 35 c-17 19 -28 41 -26
48 6 16 5 15 -25 -9z"/>
<path d="M3152 991 c-11 -7 -11 -9 2 -14 20 -8 47 -62 40 -81 -15 -40 -61 -22
-84 34 -7 17 -17 27 -25 24 -10 -4 -7 -16 12 -50 28 -50 59 -58 93 -24 24 24
24 25 -3 77 -16 30 -26 40 -35 34z"/>
<path d="M1830 963 c-42 -15 -52 -69 -19 -99 22 -19 22 -19 10 3 -17 32 -14
48 15 77 26 25 25 30 -6 19z"/>
<path d="M1884 944 c28 -27 13 -78 -27 -94 -21 -8 -21 -9 -2 -9 55 -2 86 67
47 102 -24 22 -39 22 -18 1z"/>
<path d="M2935 889 c-33 -10 -55 -33 -55 -61 0 -27 36 -58 68 -57 l27 1 -27 9
c-57 22 -53 108 5 97 15 -3 27 -2 27 3 0 14 -14 16 -45 8z"/>
<path d="M2035 880 c3 -5 -3 -31 -14 -59 -18 -49 -18 -49 2 -55 12 -3 23 -3
26 -1 2 3 0 5 -6 5 -6 0 -9 9 -6 20 7 27 21 25 29 -5 3 -13 12 -29 20 -36 17
-14 17 -13 5 28 -7 25 -6 33 6 37 17 7 14 47 -4 53 -7 3 -9 -3 -6 -16 3 -14 0
-23 -11 -27 -23 -9 -28 -1 -17 29 8 21 7 26 -10 30 -10 3 -17 1 -14 -3z"/>
<path d="M2237 823 c-12 -12 -7 -34 13 -60 11 -14 20 -30 20 -34 0 -13 -34
-11 -48 3 -9 9 -12 9 -12 0 0 -14 44 -27 65 -18 21 8 19 40 -5 61 -26 24 -26
49 0 42 11 -3 18 -1 14 4 -6 10 -38 12 -47 2z"/>
<path d="M2991 797 c-13 -21 -12 -21 5 -5 10 10 16 20 13 22 -3 3 -11 -5 -18
-17z"/>
<path d="M2563 803 c-7 -3 -13 -13 -13 -24 0 -11 -5 -28 -12 -38 -16 -26 7
-55 36 -46 12 4 34 6 51 6 28 -2 29 -1 10 12 -18 14 -18 16 -2 41 16 23 16 26
2 26 -9 0 -14 -4 -11 -8 2 -4 1 -14 -4 -21 -12 -21 -31 -3 -24 23 6 24 -10 37
-33 29z m17 -19 c0 -8 -5 -12 -10 -9 -6 4 -8 11 -5 16 9 14 15 11 15 -7z m11
-50 c10 -13 10 -17 -2 -24 -17 -11 -45 13 -35 29 10 15 21 14 37 -5z"/>
</g>
</svg>